<svg width="40" height="40" viewBox="0 0 40 40" fill="none" xmlns="http://www.w3.org/2000/svg">
<circle cx="20" cy="20" r="20" fill="#3D9386"/>
<path d="M30.0859 12.4758C29.9363 12.325 29.7585 12.2053 29.5625 12.1237C29.3665 12.042 29.1563 12 28.9439 12C28.7316 12 28.5214 12.042 28.3254 12.1237C28.1294 12.2053 27.9515 12.325 27.802 12.4758L15.8197 24.4741L10.7856 19.4239C10.6303 19.2739 10.4471 19.156 10.2462 19.0768C10.0454 18.9977 9.831 18.9589 9.61519 18.9626C9.39938 18.9664 9.18641 19.0126 8.98846 19.0986C8.79051 19.1846 8.61144 19.3088 8.46147 19.4641C8.31151 19.6193 8.1936 19.8026 8.11446 20.0034C8.03532 20.2042 7.99651 20.4186 8.00025 20.6344C8.00398 20.8503 8.05018 21.0632 8.13622 21.2612C8.22226 21.4591 8.34644 21.6382 8.50168 21.7882L14.6778 27.9643C14.8273 28.115 15.0052 28.2347 15.2012 28.3163C15.3972 28.398 15.6074 28.44 15.8197 28.44C16.032 28.44 16.2423 28.398 16.4383 28.3163C16.6342 28.2347 16.8121 28.115 16.9617 27.9643L30.0859 14.84C30.2491 14.6894 30.3794 14.5066 30.4685 14.3032C30.5576 14.0997 30.6036 13.88 30.6036 13.6579C30.6036 13.4358 30.5576 13.2161 30.4685 13.0126C30.3794 12.8092 30.2491 12.6264 30.0859 12.4758Z" fill="white"/>
</svg>
