<svg width="70" height="186" viewBox="0 0 70 186" fill="none" xmlns="http://www.w3.org/2000/svg">
<circle cx="13" cy="3" r="3" fill="#43BA7F"/>
<circle cx="31" cy="3" r="3" fill="#43BA7F"/>
<circle cx="49" cy="3" r="3" fill="#43BA7F"/>
<circle cx="67" cy="3" r="3" fill="#43BA7F"/>
<circle cx="13" cy="21" r="3" fill="#43BA7F"/>
<circle cx="31" cy="21" r="3" fill="#43BA7F"/>
<circle cx="49" cy="21" r="3" fill="#43BA7F"/>
<circle cx="67" cy="21" r="3" fill="#43BA7F"/>
<circle cx="13" cy="39" r="3" fill="#43BA7F"/>
<circle cx="31" cy="39" r="3" fill="#43BA7F"/>
<circle cx="49" cy="39" r="3" fill="#43BA7F"/>
<circle cx="67" cy="39" r="3" fill="#43BA7F"/>
<circle cx="13" cy="57" r="3" fill="#43BA7F"/>
<circle cx="31" cy="57" r="3" fill="#43BA7F"/>
<circle cx="49" cy="57" r="3" fill="#43BA7F"/>
<circle cx="67" cy="57" r="3" fill="#43BA7F"/>
<circle cx="13" cy="75" r="3" fill="#43BA7F"/>
<circle cx="31" cy="75" r="3" fill="#43BA7F"/>
<circle cx="49" cy="75" r="3" fill="#43BA7F"/>
<circle cx="67" cy="75" r="3" fill="#43BA7F"/>
<circle cx="13" cy="93" r="3" fill="#43BA7F"/>
<circle cx="31" cy="93" r="3" fill="#43BA7F"/>
<circle cx="49" cy="93" r="3" fill="#43BA7F"/>
<circle cx="67" cy="93" r="3" fill="#43BA7F"/>
<circle cx="13" cy="111" r="3" fill="#43BA7F"/>
<circle cx="31" cy="111" r="3" fill="#43BA7F"/>
<circle cx="49" cy="111" r="3" fill="#43BA7F"/>
<circle cx="67" cy="111" r="3" fill="#43BA7F"/>
<circle cx="13" cy="129" r="3" fill="#43BA7F"/>
<circle cx="31" cy="129" r="3" fill="#43BA7F"/>
<circle cx="49" cy="129" r="3" fill="#43BA7F"/>
<circle cx="67" cy="129" r="3" fill="#43BA7F"/>
<circle cx="13" cy="147" r="3" fill="#43BA7F"/>
<circle cx="31" cy="147" r="3" fill="#43BA7F"/>
<circle cx="49" cy="147" r="3" fill="#43BA7F"/>
<circle cx="67" cy="147" r="3" fill="#43BA7F"/>
<circle cx="13" cy="165" r="3" fill="#43BA7F"/>
<circle cx="31" cy="165" r="3" fill="#43BA7F"/>
<circle cx="49" cy="165" r="3" fill="#43BA7F"/>
<circle cx="67" cy="165" r="3" fill="#43BA7F"/>
<circle cx="13" cy="183" r="3" fill="#43BA7F"/>
<circle cx="31" cy="183" r="3" fill="#43BA7F"/>
<circle cx="49" cy="183" r="3" fill="#43BA7F"/>
<circle cx="67" cy="183" r="3" fill="#43BA7F"/>
</svg>
