<svg width="68" height="186" viewBox="0 0 68 186" fill="none" xmlns="http://www.w3.org/2000/svg">
<circle cx="3" cy="3" r="3" fill="#3D9386"/>
<circle cx="21" cy="3" r="3" fill="#3D9386"/>
<circle cx="39" cy="3" r="3" fill="#3D9386"/>
<circle cx="57" cy="3" r="3" fill="#3D9386"/>
<circle cx="3" cy="21" r="3" fill="#3D9386"/>
<circle cx="21" cy="21" r="3" fill="#3D9386"/>
<circle cx="39" cy="21" r="3" fill="#3D9386"/>
<circle cx="57" cy="21" r="3" fill="#3D9386"/>
<circle cx="3" cy="39" r="3" fill="#3D9386"/>
<circle cx="21" cy="39" r="3" fill="#3D9386"/>
<circle cx="39" cy="39" r="3" fill="#3D9386"/>
<circle cx="57" cy="39" r="3" fill="#3D9386"/>
<circle cx="3" cy="57" r="3" fill="#3D9386"/>
<circle cx="21" cy="57" r="3" fill="#3D9386"/>
<circle cx="39" cy="57" r="3" fill="#3D9386"/>
<circle cx="57" cy="57" r="3" fill="#3D9386"/>
<circle cx="3" cy="75" r="3" fill="#3D9386"/>
<circle cx="21" cy="75" r="3" fill="#3D9386"/>
<circle cx="39" cy="75" r="3" fill="#3D9386"/>
<circle cx="57" cy="75" r="3" fill="#3D9386"/>
<circle cx="3" cy="93" r="3" fill="#3D9386"/>
<circle cx="21" cy="93" r="3" fill="#3D9386"/>
<circle cx="39" cy="93" r="3" fill="#3D9386"/>
<circle cx="57" cy="93" r="3" fill="#3D9386"/>
<circle cx="3" cy="111" r="3" fill="#3D9386"/>
<circle cx="21" cy="111" r="3" fill="#3D9386"/>
<circle cx="39" cy="111" r="3" fill="#3D9386"/>
<circle cx="57" cy="111" r="3" fill="#3D9386"/>
<circle cx="3" cy="129" r="3" fill="#3D9386"/>
<circle cx="21" cy="129" r="3" fill="#3D9386"/>
<circle cx="39" cy="129" r="3" fill="#3D9386"/>
<circle cx="57" cy="129" r="3" fill="#3D9386"/>
<circle cx="3" cy="147" r="3" fill="#3D9386"/>
<circle cx="21" cy="147" r="3" fill="#3D9386"/>
<circle cx="39" cy="147" r="3" fill="#3D9386"/>
<circle cx="57" cy="147" r="3" fill="#3D9386"/>
<circle cx="3" cy="165" r="3" fill="#3D9386"/>
<circle cx="21" cy="165" r="3" fill="#3D9386"/>
<circle cx="39" cy="165" r="3" fill="#3D9386"/>
<circle cx="57" cy="165" r="3" fill="#3D9386"/>
<circle cx="3" cy="183" r="3" fill="#3D9386"/>
<circle cx="21" cy="183" r="3" fill="#3D9386"/>
<circle cx="39" cy="183" r="3" fill="#3D9386"/>
<circle cx="57" cy="183" r="3" fill="#3D9386"/>
</svg>
