<svg width="140" height="40" viewBox="0 0 140 40" fill="none" xmlns="http://www.w3.org/2000/svg">
<path fill-rule="evenodd" clip-rule="evenodd" d="M32.7454 20.5766C32.6527 27.7269 26.8204 33.5138 19.6215 33.5138C12.4226 33.5138 6.6083 27.7458 6.49756 20.5954V0.415271H8.14061V20.4103C8.14061 26.7311 13.2724 31.8725 19.6215 31.8725C25.9706 31.8725 31.1023 26.7311 31.1023 20.4103V0.378418H32.7454V20.5757V20.5766ZM39.2429 20.5766C39.1503 31.3206 30.401 40 19.6215 40C8.84197 40 0.11074 31.3386 0 20.5946V0.415271H1.64305V20.4103C1.64305 30.3247 9.69097 38.3596 19.6215 38.3596C29.552 38.3596 37.5999 30.3247 37.5999 20.4103V0.378418H39.2429V20.5757V20.5766ZM35.9757 20.5766C35.9019 29.5147 28.6111 36.738 19.6215 36.738C10.6319 36.738 3.37798 29.5328 3.26724 20.5946V0.415271H4.91029V20.3366C4.91029 20.3612 4.91029 20.3857 4.91029 20.4103C4.91029 28.5189 11.4997 35.0976 19.6215 35.0976C27.7432 35.0976 34.3327 28.5189 34.3327 20.4103C34.3327 20.3857 34.3327 20.3612 34.3327 20.3366V0.378418H35.9757V20.5757V20.5766ZM29.4781 20.5766C29.4043 25.9211 25.0108 30.2518 19.6215 30.2518C14.2321 30.2518 9.87554 25.9391 9.7648 20.5954V0.397254H11.4079V20.4103C11.4079 24.9441 15.0811 28.6114 19.6223 28.6114C24.1635 28.6114 27.8367 24.9441 27.8367 20.4103V0.378418H29.4798V20.5757L29.4781 20.5766Z" fill="white"/>
<path d="M37.5999 0.378418H39.2429L62.9621 38.6913C60.913 38.6913 60.9318 38.6913 60.9318 38.6913L37.5999 0.378418Z" fill="white"/>
<path d="M34.3325 0.378418H35.9756L59.6948 38.6913C57.6456 38.6913 57.6645 38.6913 57.6645 38.6913L34.3325 0.378418Z" fill="white"/>
<path d="M31.1023 0.378418H32.7454L56.4645 38.6913C54.4154 38.6913 54.4343 38.6913 54.4343 38.6913L31.1023 0.378418Z" fill="white"/>
<path d="M27.835 0.378418H29.478L53.1972 38.6913C51.1481 38.6913 51.167 38.6913 51.167 38.6913L27.835 0.378418Z" fill="white"/>
<path d="M61.4307 33.0341V8.46924L63.0737 9.1326V35.6884L61.4307 33.0349V33.0341Z" fill="white"/>
<path d="M51.4253 16.8724V4.5249L53.0684 5.17025V19.5259L51.4253 16.8724Z" fill="white"/>
<path d="M54.7664 22.253V5.85156L56.4094 6.49691V24.9072L54.7664 22.2538V22.253Z" fill="white"/>
<path d="M58.0894 27.6523V7.16016L59.7324 7.8055V30.3066L58.0894 27.6531V27.6523Z" fill="white"/>
<path d="M61.4304 6.69914V0.360352H63.0735V7.34449L61.4304 6.69914Z" fill="white"/>
<path d="M51.4253 2.70014V0.360352H53.0684V3.36432L51.4253 2.70095V2.70014Z" fill="white"/>
<path d="M54.7664 4.02768V0.360352H56.4094V4.69104L54.7664 4.02768Z" fill="white"/>
<path d="M58.0894 5.37242V0.360352H59.7324V6.01777L58.0894 5.37242Z" fill="white"/>
<path d="M27.835 0.378418V0.783806L29.478 3.62152V3.06872L27.835 0.378418Z" fill="white"/>
<path d="M31.1023 0.378418V0.783806L32.7454 3.62152V3.06872L31.1023 0.378418Z" fill="white"/>
<path d="M34.3325 0.378418V0.783806L35.9756 3.62152V3.06872L34.3325 0.378418Z" fill="white"/>
<path d="M37.5999 0.378418V0.783806L39.2429 3.62152V3.06872L37.5999 0.378418Z" fill="white"/>
<path d="M31.1023 5.72266V6.12804L32.7454 8.9846V8.43179L31.1023 5.72266Z" fill="white"/>
<path d="M34.3325 5.68604V6.07341L35.9756 8.92996V8.37716L34.3325 5.68685V5.68604Z" fill="white"/>
<path d="M37.5996 5.74072V6.14611L39.2427 8.98383V8.43102L37.5996 5.74072Z" fill="white"/>
<path d="M34.3516 11.0664V11.4718L35.9946 14.3283V13.7755L34.3516 11.0664Z" fill="white"/>
<path d="M37.5996 11.0487V11.4541L39.2427 14.2918V13.757L37.5996 11.0479V11.0487Z" fill="white"/>
<path d="M37.5996 16.411V16.8164L39.2427 19.6541V19.1193L37.5996 16.4102V16.411Z" fill="white"/>
<path d="M83.9194 3.80664H81.3827V11.1349L75.8388 3.80664H73.7092V15.8592H76.2459V8.54616L81.8051 15.8592H83.9194V3.80664Z" fill="white"/>
<path d="M127.44 3.80664H124.856V15.8592H127.44V3.80664Z" fill="white"/>
<path d="M87.5997 14.3C88.1425 14.8612 88.7898 15.2929 89.5414 15.5943C90.293 15.8958 91.0968 16.0468 91.9528 16.0468C92.8402 16.0572 93.6544 15.9117 94.3956 15.6103C95.1368 15.2985 95.7791 14.8619 96.322 14.3007C96.8648 13.7498 97.2879 13.0895 97.5907 12.3203C97.8934 11.5616 98.0395 10.735 98.0291 9.8411C98.0395 8.93685 97.8934 8.10535 97.5907 7.34661C97.2879 6.59827 96.8648 5.94347 96.322 5.38221C95.7791 4.82095 95.1368 4.38441 94.3956 4.0726C93.6544 3.76079 92.8402 3.60974 91.9528 3.62013C91.0968 3.60974 90.2979 3.76079 89.5567 4.0726C88.8051 4.38441 88.1578 4.82649 87.615 5.39814C87.0722 5.9594 86.649 6.6142 86.3463 7.36255C86.0436 8.12129 85.8918 8.94793 85.8918 9.84179C85.9023 10.7253 86.054 11.5464 86.3463 12.3051C86.6386 13.0742 87.0562 13.7394 87.599 14.3007L87.5997 14.3ZM88.7431 8.26611C88.9206 7.79839 89.1663 7.39304 89.4794 7.05005C89.7926 6.70706 90.1635 6.44167 90.5916 6.25458C91.0091 6.07789 91.4636 5.9788 91.9542 5.95802C92.4657 5.95802 92.9306 6.0571 93.3482 6.25458C93.7762 6.44167 94.1471 6.70706 94.4603 7.05005C94.7735 7.39304 95.0192 7.79839 95.1966 8.26611C95.3741 8.74422 95.468 9.26944 95.4785 9.8411C95.468 10.4127 95.3741 10.9324 95.1966 11.4001C95.0192 11.8679 94.7735 12.2788 94.4603 12.6321C94.1471 12.9751 93.7762 13.235 93.3482 13.4117C92.9306 13.5988 92.4657 13.6978 91.9542 13.7082C91.4531 13.7082 90.9938 13.6147 90.5762 13.4276C90.1587 13.2405 89.7933 12.9751 89.4801 12.6321C89.167 12.2788 88.9213 11.8679 88.7438 11.4001C88.5768 10.922 88.4828 10.4024 88.462 9.8411C88.4828 9.25905 88.5768 8.73382 88.7438 8.26611H88.7431Z" fill="white"/>
<path d="M102.587 12.5067H104.952L107.082 15.859H109.869L107.379 11.9919H107.41C108.13 11.6489 108.689 11.15 109.086 10.4952C109.472 9.8508 109.666 9.08167 109.666 8.18782C109.666 7.29396 109.472 6.50404 109.086 5.84924C108.689 5.19444 108.13 4.69 107.41 4.33661C106.69 3.99362 105.828 3.82178 104.826 3.82178H100.002V15.859H102.586V12.5067H102.587ZM102.602 6.08275H104.701C105.494 6.08275 106.084 6.26984 106.471 6.64401C106.867 7.00779 107.066 7.52262 107.066 8.18782C107.066 8.85301 106.867 9.35745 106.471 9.73162C106.084 10.1058 105.494 10.2929 104.701 10.2929H102.586M102.586 10.2929V6.08275V10.2929Z" fill="white"/>
<path d="M137.071 13.3334C136.602 13.5724 136.09 13.6923 135.537 13.6923C135.025 13.6923 134.55 13.5988 134.112 13.4117C133.673 13.235 133.297 12.9752 132.984 12.6322C132.661 12.2788 132.415 11.8679 132.248 11.4002C132.07 10.9324 131.981 10.4128 131.981 9.84111C131.981 9.26946 132.07 8.74423 132.248 8.26612C132.415 7.79841 132.661 7.39305 132.984 7.05006C133.297 6.70707 133.673 6.44168 134.112 6.2546C134.55 6.0779 135.025 5.98921 135.537 5.98921C136.09 5.98921 136.602 6.10354 137.071 6.3322C137.541 6.57126 137.964 6.92464 138.34 7.39236L140 5.73976C139.468 5.04339 138.81 4.51331 138.027 4.14953C137.254 3.78575 136.382 3.60352 135.412 3.60352C134.545 3.60352 133.746 3.75457 133.015 4.05599C132.285 4.3678 131.642 4.80433 131.089 5.36559C130.546 5.92685 130.123 6.5872 129.82 7.34593C129.518 8.10467 129.366 8.93617 129.366 9.84042C129.366 10.7447 129.518 11.5762 129.82 12.3349C130.123 13.0936 130.546 13.754 131.089 14.3152C131.632 14.8765 132.269 15.3082 132.999 15.6096C133.741 15.911 134.54 16.0621 135.396 16.0621C136.377 16.0621 137.254 15.8798 138.026 15.5161C138.809 15.1523 139.467 14.6167 139.999 13.9099L138.339 12.2573C137.964 12.7458 137.541 13.1047 137.071 13.3334H137.071Z" fill="white"/>
<path d="M119.986 4.57061C119.057 4.07171 117.992 3.82227 116.791 3.82227H111.717V15.8595H116.791C117.992 15.8595 119.057 15.6101 119.986 15.1112C120.904 14.6123 121.625 13.9104 122.147 13.0061C122.669 12.1123 122.925 11.057 122.914 9.8409C122.925 8.61445 122.669 7.55429 122.147 6.66043C121.625 5.76658 120.904 5.0702 119.986 4.5713V4.57061ZM119.845 11.8212C119.542 12.3825 119.119 12.819 118.577 13.1308C118.034 13.4323 117.391 13.5778 116.65 13.5674H114.285V6.08254L116.65 6.09779C117.391 6.0874 118.034 6.23845 118.577 6.55026C119.119 6.86207 119.542 7.29376 119.845 7.84462C120.148 8.40588 120.305 9.07107 120.315 9.84021C120.305 10.5989 120.148 11.2593 119.845 11.8205V11.8212Z" fill="white"/>
<path d="M103.041 18.9541V24.7857H102.023L99.3293 21.2463V24.7857H98.1079V18.9541H99.1261L101.819 22.4935V18.9541H103.041Z" fill="white"/>
<path d="M121.944 19.7338C121.683 19.4635 121.374 19.2501 121.019 19.0942C120.654 18.9487 120.257 18.8808 119.829 18.8912C119.412 18.8808 119.026 18.9487 118.671 19.0942C118.305 19.2501 117.992 19.4635 117.731 19.7338C117.47 20.0144 117.266 20.3366 117.12 20.7004C116.974 21.0641 116.901 21.4591 116.901 21.8852C116.901 22.3114 116.974 22.7119 117.12 23.0861C117.256 23.4498 117.46 23.772 117.731 24.0527C117.992 24.3229 118.305 24.5308 118.671 24.6763C119.026 24.8218 119.412 24.8946 119.829 24.8946C120.257 24.905 120.654 24.8322 121.019 24.6763C121.374 24.5308 121.683 24.3229 121.944 24.0527C122.205 23.7824 122.409 23.4602 122.555 23.0861C122.701 22.7223 122.774 22.3218 122.774 21.8852C122.774 21.4487 122.701 21.0482 122.555 20.6844C122.409 20.3206 122.205 20.0033 121.944 19.7331V19.7338ZM121.395 22.6495C121.312 22.8782 121.197 23.0757 121.051 23.242C120.894 23.4083 120.711 23.533 120.502 23.6161C120.304 23.7097 120.079 23.7568 119.829 23.7568C119.589 23.7568 119.369 23.7152 119.171 23.6321C118.962 23.5385 118.785 23.4083 118.639 23.242C118.482 23.0757 118.362 22.8782 118.278 22.6495C118.195 22.4105 118.148 22.1555 118.138 21.8852C118.148 21.6046 118.195 21.3496 118.278 21.121C118.362 20.9027 118.482 20.7101 118.639 20.5438C118.785 20.3775 118.962 20.2472 119.171 20.1537C119.369 20.0705 119.589 20.0234 119.829 20.013C120.079 20.013 120.304 20.0601 120.502 20.1537C120.711 20.2472 120.894 20.3775 121.051 20.5438C121.197 20.7101 121.312 20.9075 121.395 21.1362C121.479 21.3649 121.525 21.6143 121.536 21.8846C121.525 22.1652 121.478 22.4202 121.395 22.6488V22.6495Z" fill="white"/>
<path d="M88.0379 21.3238L87.8813 22.3535H91.0138V21.3086H88.5077L87.8813 21.3238H88.0379Z" fill="white"/>
<path d="M91.3272 20.0456L91.3425 18.9702H87.2712V24.8011H91.4365V23.7097H88.4926V22.3689H88.414V21.324H88.5079V21.3088V20.0456H91.3272Z" fill="white"/>
<path d="M115.961 18.9702H114.708V24.8018H115.961V18.9702Z" fill="white"/>
<path d="M137.291 18.9702H136.053L136.069 24.8011H140V23.6945H137.306L137.291 18.9702Z" fill="white"/>
<path d="M133.125 22.5249H131.403L131.011 23.5386H133.516L133.124 22.5249H133.125Z" fill="white"/>
<path d="M135.302 24.8011H133.986L133.517 23.5538H133.893L133.563 22.5249H133.125L132.264 20.2951L131.402 22.5249H130.791L130.463 23.5538H131.011L130.541 24.8011H129.257L131.653 18.9702H132.89L135.302 24.8011Z" fill="white"/>
<path d="M128.662 18.9702V24.8011H127.643L124.95 21.2617V24.8011H123.729V18.9702H124.762L127.44 22.5249V18.9702H128.662Z" fill="white"/>
<path d="M111.059 20.0768L111.075 24.8011H112.312V20.0768H114.035V18.9702H109.336V20.0768H111.059Z" fill="white"/>
<path d="M93.6914 23.1486H94.8348L95.8683 24.7859H97.2149L96.0089 22.9151C96.0193 22.9151 96.0249 22.9102 96.0242 22.8998C96.3687 22.7335 96.6401 22.4945 96.8384 22.1827C97.0263 21.8709 97.1203 21.4967 97.1203 21.0601C97.1203 20.6236 97.0263 20.2494 96.8384 19.9376C96.6401 19.6154 96.3687 19.3708 96.0242 19.2045C95.6797 19.0382 95.2621 18.9551 94.7715 18.9551H92.438V24.7866H93.6907V23.1493M93.6907 20.0464H94.7089C95.0951 20.0464 95.3825 20.1351 95.5704 20.3118C95.7583 20.4885 95.8523 20.7379 95.8523 21.0601C95.8523 21.3823 95.7583 21.6318 95.5704 21.8085C95.3825 21.9956 95.0951 22.0891 94.7089 22.0891H93.6907V20.0464Z" fill="white"/>
<path d="M80.02 22.5094L77.3267 18.9541H76.2932V24.7857H77.5306V21.2463L80.2239 24.7857H81.2421V18.9541H80.0047L80.02 22.5094Z" fill="white"/>
<path d="M83.6374 24.8011H84.8748L84.8588 20.0616H86.5972L86.5812 18.9702H81.8989V20.0616H83.6221L83.6374 24.8011Z" fill="white"/>
<path d="M75.0091 18.9541H73.7717V24.7857H75.0091V18.9541Z" fill="white"/>
<path d="M106.627 20.2949L106.376 19.6401H106.878L106.627 20.2949Z" fill="white"/>
<path d="M105.083 22.5249H108.091L108.564 23.5539H104.591L105.083 22.5249Z" fill="white"/>
<path d="M130.66 22.5249H133.667L134.14 23.5539H130.168L130.66 22.5249Z" fill="white"/>
<path d="M109.666 24.7858H108.366L107.88 23.5386H108.272L107.927 22.5249H107.489L106.627 20.2951L105.782 22.5249H105.155L104.827 23.5386H105.374L104.905 24.7858H103.621L106.032 18.9702H107.253L109.666 24.7858Z" fill="white"/>
<path d="M78.6733 32.2936C78.6733 33.0524 78.5271 33.6032 78.2348 33.9462C77.9425 34.2788 77.5354 34.4451 77.0135 34.4451C76.4915 34.4451 76.0844 34.2788 75.7921 33.9462C75.4998 33.6032 75.3536 33.0524 75.3536 32.2936V27.8652H73.6465V32.356C73.6465 33.5409 73.9443 34.4507 74.5394 35.0847C75.1344 35.7187 75.9542 36.0361 76.9982 36.0361C78.0525 36.0361 78.8772 35.7187 79.4722 35.0847C80.0673 34.4507 80.3651 33.5409 80.3651 32.356V27.8652H78.674V32.2936H78.6733Z" fill="white"/>
<path d="M87.1904 32.7586L83.4811 27.8652H82.0718V35.8954H83.7629V31.0194L87.4591 35.8954H88.8837V27.8652H87.1772L87.1904 32.7586Z" fill="white"/>
<path d="M92.3606 27.8652H90.6382V35.8954H92.3606V27.8652Z" fill="white"/>
<path d="M97.2183 33.5928L94.9599 27.8652H93.0962L96.3066 35.8954H97.9984L101.209 27.8652H99.5017L97.2183 33.5928Z" fill="white"/>
<path d="M106.988 32.5271V31.0928L103.213 31.1087L102.884 32.543H103.516L106.988 32.5271Z" fill="white"/>
<path d="M103.527 32.5431H103.515H103.511H103.417L103.401 31.1088H103.527L103.542 29.3619H107.426L107.442 27.8652H101.835V35.8954H107.567L107.583 34.3987H103.511L103.527 32.5431Z" fill="white"/>
<path d="M113.862 33.3223C113.873 33.3223 113.877 33.3175 113.877 33.3064C114.358 33.077 114.734 32.75 115.005 32.3238C115.267 31.8873 115.397 31.3725 115.397 30.78C115.397 30.1876 115.267 29.6575 115.005 29.221C114.734 28.7844 114.358 28.4463 113.877 28.2072C113.397 27.9779 112.828 27.8643 112.17 27.8643H108.945V35.8944H110.667V33.6494H112.249L113.674 35.8944H115.522L113.862 33.3216V33.3223ZM113.251 31.8097C112.989 32.0591 112.598 32.1839 112.076 32.1839H110.667L110.682 29.3776H112.076C112.598 29.3776 112.989 29.5023 113.251 29.7517C113.513 29.9901 113.643 30.3331 113.643 30.7807C113.643 31.2283 113.513 31.5603 113.251 31.8097Z" fill="white"/>
<path d="M124.715 27.8652H122.992V35.8954H124.715V27.8652Z" fill="white"/>
<path d="M121.254 31.8259C120.993 31.6596 120.711 31.5293 120.408 31.4358C120.095 31.3318 119.787 31.2431 119.484 31.1704C119.171 31.0872 118.889 31.0089 118.639 30.9362C118.388 30.8634 118.184 30.7643 118.027 30.6396C117.871 30.5045 117.792 30.3382 117.792 30.1407C117.792 29.964 117.84 29.8081 117.933 29.673C118.016 29.5379 118.167 29.4284 118.387 29.3453C118.596 29.2621 118.868 29.2205 119.202 29.2205C119.536 29.2205 119.875 29.2725 120.22 29.3764C120.564 29.4804 120.909 29.6363 121.253 29.8441L121.786 28.441C121.441 28.2019 121.044 28.0197 120.596 27.895C120.136 27.7807 119.677 27.7231 119.218 27.7231C118.518 27.7231 117.934 27.8375 117.464 28.0661C117.004 28.2844 116.66 28.5858 116.43 28.9704C116.201 29.3446 116.086 29.7603 116.086 30.2176C116.086 30.6542 116.164 31.0075 116.321 31.2778C116.478 31.5584 116.686 31.7822 116.947 31.9485C117.198 32.1148 117.475 32.2499 117.778 32.3539C118.091 32.4682 118.399 32.5618 118.702 32.6345C119.015 32.7073 119.297 32.78 119.547 32.8528C119.808 32.9359 120.017 33.0399 120.174 33.1646C120.32 33.2893 120.393 33.4611 120.393 33.6794C120.393 33.8457 120.346 33.9968 120.252 34.1319C120.158 34.2566 120.007 34.3557 119.798 34.4285C119.589 34.5012 119.312 34.5379 118.968 34.5379C118.519 34.5379 118.08 34.4596 117.652 34.3037C117.214 34.1478 116.838 33.9448 116.525 33.6954L115.93 35.0985C116.264 35.3791 116.702 35.6029 117.245 35.7692C117.788 35.9459 118.357 36.0346 118.952 36.0346C119.662 36.0346 120.247 35.9203 120.706 35.6916C121.176 35.463 121.526 35.1616 121.756 34.7874C121.996 34.4132 122.116 33.9975 122.116 33.5401C122.116 33.1244 122.033 32.7759 121.866 32.4952C121.709 32.225 121.505 32.0012 121.255 31.8245L121.254 31.8259Z" fill="white"/>
<path d="M132.107 27.8652H125.639V29.3779H128.019L128.035 35.8954H129.742L129.726 29.3779H132.123L132.107 27.8652Z" fill="white"/>
<path d="M136.328 31.4282L134.346 27.8652H132.53L135.396 33.0371V35.8954H137.118V33.0406L140 27.8652H138.308L136.328 31.4282Z" fill="white"/>
<path d="M69.2714 39.6397V0H67.4485V39.6397H69.2714Z" fill="white"/>
</svg>
