<svg width="40" height="40" viewBox="0 0 40 40" fill="none" xmlns="http://www.w3.org/2000/svg">
<path d="M39.9439 22.634C39.9438 22.6338 39.9438 22.6337 39.9437 22.6335L32.3915 0.575945C32.2313 0.10728 31.7746 -0.121516 31.3716 0.064923C31.3714 0.0650372 31.3711 0.0651513 31.3708 0.0653797L0.732602 14.2562C0.607655 14.319 0.499296 14.4192 0.418518 14.5466C0.163717 14.7006 0.00274824 15.0055 0 15.3394V39.0866C0 39.591 0.351578 40 0.785211 40H33.7641C34.1977 40 34.5493 39.591 34.5493 39.0866V26.117L39.5056 23.8208C39.9084 23.6339 40.1046 23.1026 39.9439 22.634ZM32.9789 38.1733H1.57042V16.2528H32.9789V38.1733ZM13.1013 14.4306L26.2488 8.33672C27.4222 9.77138 29.0481 10.5868 30.7504 10.5945L32.0617 14.4306H13.1013ZM34.5493 24.1551V15.3394C34.5493 14.835 34.1977 14.4261 33.7641 14.4261H33.7515L32.0877 9.56519C32.0692 9.52466 32.0477 9.48607 32.0233 9.4501C31.9391 9.01021 31.5889 8.71006 31.2027 8.74682C29.6188 8.91476 28.0692 8.13864 27.0859 6.68446C26.8412 6.33316 26.4111 6.24582 26.0784 6.47987C26.0411 6.48501 26.0041 6.493 25.9677 6.50362L9.91643 13.9383C9.72219 14.0269 9.56682 14.2026 9.48535 14.4261H4.61076L31.2231 2.10033L38.195 22.4636L34.5493 24.1551Z" fill="#43BA7F"/>
<path d="M3.70224 32.0073C5.22673 32.5314 6.41966 33.9173 6.87214 35.6899C6.97137 36.0768 7.27731 36.3419 7.62437 36.3421C7.66511 36.3391 7.70554 36.332 7.7453 36.3211C7.78053 36.3327 7.81655 36.3413 7.85287 36.3466H26.6979C26.7303 36.3417 26.7623 36.3341 26.7937 36.3238C27.1861 36.4348 27.5814 36.1549 27.6769 35.6986C27.6772 35.6969 27.6776 35.6953 27.6779 35.6936C28.1292 33.9192 29.3223 32.5313 30.8478 32.0064C31.2177 31.8748 31.4476 31.446 31.3864 31.0017C31.3969 30.9574 31.4045 30.9122 31.4092 30.8665V23.5597C31.4046 23.5139 31.3967 23.4687 31.3857 23.4245C31.4472 22.98 31.2172 22.551 30.847 22.4198C29.3215 21.895 28.1287 20.5065 27.6787 18.7317C27.565 18.2984 27.1927 18.0303 26.8087 18.1051C26.7723 18.0933 26.7353 18.0848 26.6979 18.0795H7.85287C7.81331 18.085 7.77415 18.0941 7.73587 18.1069C7.35397 18.0361 6.98551 18.3034 6.87214 18.7335C6.42055 20.5076 5.22752 21.895 3.70224 22.4198C3.33231 22.5513 3.10244 22.9801 3.16359 23.4245C3.15338 23.4689 3.14602 23.514 3.1416 23.5597V30.8665C3.14612 30.9094 3.15348 30.9519 3.16359 30.9935C3.0992 31.4407 3.32956 31.8743 3.70224 32.0073ZM4.71202 23.9305C6.28873 23.1939 7.53839 21.7403 8.17167 19.9062H26.3784C27.0119 21.7403 28.2619 23.1939 29.8388 23.9305V30.4957C28.2626 31.2331 27.0131 32.6865 26.3791 34.5199H8.17167C7.53771 32.6865 6.28824 31.2331 4.71202 30.4957V23.9305Z" fill="#43BA7F"/>
<path d="M17.2757 32.6932C19.8777 32.6932 21.987 30.2397 21.987 27.2131C21.987 24.1864 19.8777 21.7329 17.2757 21.7329C14.6737 21.7329 12.5645 24.1864 12.5645 27.2131C12.567 30.2384 14.6748 32.6902 17.2757 32.6932ZM17.2757 23.5597C19.0104 23.5597 20.4166 25.1954 20.4166 27.2131C20.4166 29.2308 19.0104 30.8665 17.2757 30.8665C15.5411 30.8665 14.1349 29.2308 14.1349 27.2131C14.1349 25.1954 15.5411 23.5597 17.2757 23.5597Z" fill="#43BA7F"/>
<path d="M8.63827 28.583C9.28872 28.583 9.81608 27.9696 9.81608 27.213C9.81608 26.4564 9.28872 25.8429 8.63827 25.8429C7.98782 25.8429 7.46045 26.4564 7.46045 27.213C7.46045 27.9697 7.98782 28.583 8.63827 28.583ZM8.63827 26.7563C8.85508 26.7563 9.03087 26.9608 9.03087 27.213C9.03087 27.4652 8.85508 27.6696 8.63827 27.6696C8.42145 27.6696 8.24566 27.4652 8.24566 27.213C8.24566 26.9608 8.42145 26.7563 8.63827 26.7563Z" fill="#43BA7F"/>
<path d="M25.9132 28.583C26.5636 28.583 27.091 27.9696 27.091 27.213C27.091 26.4564 26.5636 25.8429 25.9132 25.8429C25.2627 25.8429 24.7354 26.4564 24.7354 27.213C24.7354 27.9697 25.2627 28.583 25.9132 28.583ZM25.9132 26.7563C26.13 26.7563 26.3058 26.9608 26.3058 27.213C26.3058 27.4652 26.13 27.6696 25.9132 27.6696C25.6964 27.6696 25.5206 27.4652 25.5206 27.213C25.5206 26.9608 25.6964 26.7563 25.9132 26.7563Z" fill="#43BA7F"/>
</svg>
