<svg width="140" height="40" viewBox="0 0 140 40" fill="none" xmlns="http://www.w3.org/2000/svg">
<path fill-rule="evenodd" clip-rule="evenodd" d="M32.7454 20.5766C32.6527 27.727 26.8204 33.5138 19.6215 33.5138C12.4226 33.5138 6.6083 27.7458 6.49756 20.5955V0.415332H8.14061V20.4104C8.14061 26.7311 13.2724 31.8726 19.6215 31.8726C25.9706 31.8726 31.1023 26.7311 31.1023 20.4104V0.378479H32.7454V20.5758V20.5766ZM39.2429 20.5766C39.1503 31.3206 30.401 40 19.6215 40C8.84197 40 0.11074 31.3386 0 20.5946V0.415332H1.64305V20.4104C1.64305 30.3248 9.69097 38.3596 19.6215 38.3596C29.552 38.3596 37.5999 30.3248 37.5999 20.4104V0.378479H39.2429V20.5758V20.5766ZM35.9757 20.5766C35.9019 29.5148 28.6111 36.7381 19.6215 36.7381C10.6319 36.7381 3.37798 29.5328 3.26724 20.5946V0.415332H4.91029V20.3367C4.91029 20.3612 4.91029 20.3858 4.91029 20.4104C4.91029 28.5189 11.4997 35.0977 19.6215 35.0977C27.7432 35.0977 34.3327 28.5189 34.3327 20.4104C34.3327 20.3858 34.3327 20.3612 34.3327 20.3367V0.378479H35.9757V20.5758V20.5766ZM29.4781 20.5766C29.4043 25.9212 25.0108 30.2519 19.6215 30.2519C14.2321 30.2519 9.87554 25.9392 9.7648 20.5955V0.397315H11.4079V20.4104C11.4079 24.9442 15.0811 28.6115 19.6223 28.6115C24.1635 28.6115 27.8367 24.9442 27.8367 20.4104V0.378479H29.4798V20.5758L29.4781 20.5766Z" fill="#3D668E"/>
<path d="M37.5999 0.37851H39.2429L62.9621 38.6914C60.913 38.6914 60.9318 38.6914 60.9318 38.6914L37.5999 0.37851Z" fill="#3D668E"/>
<path d="M34.3325 0.37851H35.9756L59.6948 38.6914C57.6456 38.6914 57.6645 38.6914 57.6645 38.6914L34.3325 0.37851Z" fill="#3D668E"/>
<path d="M31.1023 0.37851H32.7454L56.4645 38.6914C54.4154 38.6914 54.4343 38.6914 54.4343 38.6914L31.1023 0.37851Z" fill="#3D668E"/>
<path d="M27.835 0.37851H29.478L53.1972 38.6914C51.1481 38.6914 51.167 38.6914 51.167 38.6914L27.835 0.37851Z" fill="#3D668E"/>
<path d="M61.4307 33.0338V8.46893L63.0737 9.1323V35.6881L61.4307 33.0346V33.0338Z" fill="#3D668E"/>
<path d="M51.4253 16.8723V4.52478L53.0684 5.17012V19.5258L51.4253 16.8723Z" fill="#3D668E"/>
<path d="M54.7664 22.253V5.85156L56.4094 6.49691V24.9072L54.7664 22.2538V22.253Z" fill="#3D668E"/>
<path d="M58.0894 27.6524V7.16028L59.7324 7.80562V30.3067L58.0894 27.6532V27.6524Z" fill="#3D668E"/>
<path d="M61.4304 6.69914V0.360352H63.0735V7.34449L61.4304 6.69914Z" fill="#3D668E"/>
<path d="M51.4253 2.70014V0.360352H53.0684V3.36432L51.4253 2.70095V2.70014Z" fill="#3D668E"/>
<path d="M54.7664 4.02768V0.360352H56.4094V4.69104L54.7664 4.02768Z" fill="#3D668E"/>
<path d="M58.0894 5.37242V0.360352H59.7324V6.01777L58.0894 5.37242Z" fill="#3D668E"/>
<path d="M27.835 0.37851V0.783897L29.478 3.62161V3.06881L27.835 0.37851Z" fill="#3D668E"/>
<path d="M31.1023 0.37851V0.783897L32.7454 3.62161V3.06881L31.1023 0.37851Z" fill="#3D668E"/>
<path d="M34.3325 0.37851V0.783897L35.9756 3.62161V3.06881L34.3325 0.37851Z" fill="#3D668E"/>
<path d="M37.5999 0.37851V0.783897L39.2429 3.62161V3.06881L37.5999 0.37851Z" fill="#3D668E"/>
<path d="M31.1023 5.72296V6.12835L32.7454 8.9849V8.4321L31.1023 5.72296Z" fill="#3D668E"/>
<path d="M34.3325 5.6861V6.07347L35.9756 8.93002V8.37722L34.3325 5.68691V5.6861Z" fill="#3D668E"/>
<path d="M37.5996 5.74094V6.14632L39.2427 8.98404V8.43124L37.5996 5.74094Z" fill="#3D668E"/>
<path d="M34.3516 11.0667V11.4721L35.9946 14.3286V13.7758L34.3516 11.0667Z" fill="#3D668E"/>
<path d="M37.5996 11.0487V11.4541L39.2427 14.2918V13.757L37.5996 11.0479V11.0487Z" fill="#3D668E"/>
<path d="M37.5996 16.4113V16.8167L39.2427 19.6544V19.1196L37.5996 16.4105V16.4113Z" fill="#3D668E"/>
<path d="M83.9194 3.80664H81.3827V11.1349L75.8388 3.80664H73.7092V15.8592H76.2459V8.54616L81.8051 15.8592H83.9194V3.80664Z" fill="#3D668E"/>
<path d="M127.44 3.80664H124.856V15.8592H127.44V3.80664Z" fill="#3D668E"/>
<path d="M87.5997 14.3002C88.1425 14.8615 88.7898 15.2932 89.5414 15.5946C90.293 15.896 91.0968 16.0471 91.9528 16.0471C92.8402 16.0575 93.6544 15.9119 94.3956 15.6105C95.1368 15.2987 95.7791 14.8622 96.322 14.3009C96.8648 13.7501 97.2879 13.0897 97.5907 12.3206C97.8934 11.5618 98.0395 10.7352 98.0291 9.84134C98.0395 8.93709 97.8934 8.1056 97.5907 7.34686C97.2879 6.59851 96.8648 5.94371 96.322 5.38245C95.7791 4.82119 95.1368 4.38466 94.3956 4.07285C93.6544 3.76104 92.8402 3.60998 91.9528 3.62037C91.0968 3.60998 90.2979 3.76104 89.5567 4.07285C88.8051 4.38466 88.1578 4.82674 87.615 5.39839C87.0722 5.95965 86.649 6.61445 86.3463 7.36279C86.0436 8.12153 85.8918 8.94818 85.8918 9.84203C85.9023 10.7255 86.054 11.5466 86.3463 12.3053C86.6386 13.0745 87.0562 13.7397 87.599 14.3009L87.5997 14.3002ZM88.7431 8.26635C88.9206 7.79864 89.1663 7.39328 89.4794 7.05029C89.7926 6.7073 90.1635 6.44191 90.5916 6.25483C91.0091 6.07813 91.4636 5.97905 91.9542 5.95826C92.4657 5.95826 92.9306 6.05735 93.3482 6.25483C93.7762 6.44191 94.1471 6.7073 94.4603 7.05029C94.7735 7.39328 95.0192 7.79864 95.1966 8.26635C95.3741 8.74446 95.468 9.26969 95.4785 9.84134C95.468 10.413 95.3741 10.9327 95.1966 11.4004C95.0192 11.8681 94.7735 12.279 94.4603 12.6324C94.1471 12.9754 93.7762 13.2352 93.3482 13.4119C92.9306 13.599 92.4657 13.6981 91.9542 13.7085C91.4531 13.7085 90.9938 13.6149 90.5762 13.4279C90.1587 13.2408 89.7933 12.9754 89.4801 12.6324C89.167 12.279 88.9213 11.8681 88.7438 11.4004C88.5768 10.9223 88.4828 10.4026 88.462 9.84134C88.4828 9.25929 88.5768 8.73407 88.7438 8.26635H88.7431Z" fill="#3D668E"/>
<path d="M102.587 12.5069H104.952L107.082 15.8592H109.869L107.379 11.992H107.41C108.13 11.649 108.689 11.1501 109.086 10.4953C109.472 9.85093 109.666 9.08179 109.666 8.18794C109.666 7.29408 109.472 6.50416 109.086 5.84936C108.689 5.19456 108.13 4.69012 107.41 4.33673C106.69 3.99374 105.828 3.8219 104.826 3.8219H100.002V15.8592H102.586V12.5069H102.587ZM102.602 6.08287H104.701C105.494 6.08287 106.084 6.26996 106.471 6.64413C106.867 7.00791 107.066 7.52274 107.066 8.18794C107.066 8.85313 106.867 9.35757 106.471 9.73175C106.084 10.1059 105.494 10.293 104.701 10.293H102.586M102.586 10.293V6.08287V10.293Z" fill="#3D668E"/>
<path d="M137.071 13.3335C136.602 13.5726 136.09 13.6924 135.537 13.6924C135.025 13.6924 134.55 13.5989 134.112 13.4118C133.673 13.2351 133.297 12.9753 132.984 12.6323C132.661 12.2789 132.415 11.868 132.248 11.4003C132.07 10.9326 131.981 10.4129 131.981 9.84123C131.981 9.26958 132.07 8.74435 132.248 8.26624C132.415 7.79853 132.661 7.39317 132.984 7.05018C133.297 6.70719 133.673 6.44181 134.112 6.25472C134.55 6.07803 135.025 5.98933 135.537 5.98933C136.09 5.98933 136.602 6.10366 137.071 6.33233C137.541 6.57138 137.964 6.92477 138.34 7.39248L140 5.73989C139.468 5.04351 138.81 4.51343 138.027 4.14965C137.254 3.78587 136.382 3.60364 135.412 3.60364C134.545 3.60364 133.746 3.75469 133.015 4.05611C132.285 4.36792 131.642 4.80445 131.089 5.36571C130.546 5.92697 130.123 6.58732 129.82 7.34606C129.518 8.10479 129.366 8.93629 129.366 9.84054C129.366 10.7448 129.518 11.5763 129.82 12.335C130.123 13.0938 130.546 13.7541 131.089 14.3154C131.632 14.8766 132.269 15.3083 132.999 15.6097C133.741 15.9111 134.54 16.0622 135.396 16.0622C136.377 16.0622 137.254 15.88 138.026 15.5162C138.809 15.1524 139.467 14.6168 139.999 13.91L138.339 12.2574C137.964 12.7459 137.541 13.1048 137.071 13.3335H137.071Z" fill="#3D668E"/>
<path d="M119.986 4.57095C119.057 4.07205 117.992 3.8226 116.791 3.8226H111.717V15.8599H116.791C117.992 15.8599 119.057 15.6104 119.986 15.1115C120.904 14.6126 121.625 13.9107 122.147 13.0065C122.669 12.1126 122.925 11.0573 122.914 9.84124C122.925 8.61478 122.669 7.55463 122.147 6.66077C121.625 5.76691 120.904 5.07054 119.986 4.57164V4.57095ZM119.845 11.8216C119.542 12.3828 119.119 12.8194 118.577 13.1312C118.034 13.4326 117.391 13.5781 116.65 13.5677H114.285V6.08288L116.65 6.09812C117.391 6.08773 118.034 6.23879 118.577 6.5506C119.119 6.86241 119.542 7.29409 119.845 7.84496C120.148 8.40621 120.305 9.07141 120.315 9.84054C120.305 10.5993 120.148 11.2596 119.845 11.8209V11.8216Z" fill="#3D668E"/>
<path d="M103.041 18.9544V24.7859H102.023L99.3293 21.2465V24.7859H98.1079V18.9544H99.1261L101.819 22.4938V18.9544H103.041Z" fill="#3D668E"/>
<path d="M121.944 19.7338C121.683 19.4636 121.374 19.2502 121.019 19.0943C120.654 18.9488 120.257 18.8809 119.829 18.8913C119.412 18.8809 119.026 18.9488 118.671 19.0943C118.305 19.2502 117.992 19.4636 117.731 19.7338C117.47 20.0145 117.266 20.3367 117.12 20.7005C116.974 21.0642 116.901 21.4592 116.901 21.8853C116.901 22.3115 116.974 22.712 117.12 23.0862C117.256 23.4499 117.46 23.7721 117.731 24.0528C117.992 24.323 118.305 24.5309 118.671 24.6764C119.026 24.8219 119.412 24.8947 119.829 24.8947C120.257 24.905 120.654 24.8323 121.019 24.6764C121.374 24.5309 121.683 24.323 121.944 24.0528C122.205 23.7825 122.409 23.4603 122.555 23.0862C122.701 22.7224 122.774 22.3219 122.774 21.8853C122.774 21.4488 122.701 21.0483 122.555 20.6845C122.409 20.3207 122.205 20.0034 121.944 19.7332V19.7338ZM121.395 22.6496C121.312 22.8783 121.197 23.0758 121.051 23.2421C120.894 23.4084 120.711 23.5331 120.502 23.6162C120.304 23.7098 120.079 23.7569 119.829 23.7569C119.589 23.7569 119.369 23.7153 119.171 23.6322C118.962 23.5386 118.785 23.4084 118.639 23.2421C118.482 23.0758 118.362 22.8783 118.278 22.6496C118.195 22.4106 118.148 22.1556 118.138 21.8853C118.148 21.6047 118.195 21.3497 118.278 21.1211C118.362 20.9028 118.482 20.7102 118.639 20.5439C118.785 20.3776 118.962 20.2473 119.171 20.1537C119.369 20.0706 119.589 20.0235 119.829 20.0131C120.079 20.0131 120.304 20.0602 120.502 20.1537C120.711 20.2473 120.894 20.3776 121.051 20.5439C121.197 20.7102 121.312 20.9076 121.395 21.1363C121.479 21.365 121.525 21.6144 121.536 21.8846C121.525 22.1653 121.478 22.4203 121.395 22.6489V22.6496Z" fill="#3D668E"/>
<path d="M88.0379 21.3241L87.8813 22.3538H91.0138V21.3089H88.5077L87.8813 21.3241H88.0379Z" fill="#3D668E"/>
<path d="M91.3272 20.0457L91.3425 18.9703H87.2712V24.8012H91.4365V23.7098H88.4926V22.369H88.414V21.3241H88.5079V21.3089V20.0457H91.3272Z" fill="#3D668E"/>
<path d="M115.961 18.9703H114.708V24.8019H115.961V18.9703Z" fill="#3D668E"/>
<path d="M137.291 18.9703H136.053L136.069 24.8012H140V23.6946H137.306L137.291 18.9703Z" fill="#3D668E"/>
<path d="M133.125 22.525H131.403L131.011 23.5387H133.516L133.124 22.525H133.125Z" fill="#3D668E"/>
<path d="M135.302 24.8012H133.986L133.517 23.5539H133.893L133.563 22.5249H133.125L132.264 20.2952L131.402 22.5249H130.791L130.463 23.5539H131.011L130.541 24.8012H129.257L131.653 18.9703H132.89L135.302 24.8012Z" fill="#3D668E"/>
<path d="M128.662 18.9703V24.8012H127.643L124.95 21.2618V24.8012H123.729V18.9703H124.762L127.44 22.5249V18.9703H128.662Z" fill="#3D668E"/>
<path d="M111.059 20.0769L111.075 24.8012H112.312V20.0769H114.035V18.9703H109.336V20.0769H111.059Z" fill="#3D668E"/>
<path d="M93.6914 23.1486H94.8348L95.8683 24.7859H97.2149L96.0089 22.915C96.0193 22.915 96.0249 22.9102 96.0242 22.8998C96.3687 22.7335 96.6401 22.4944 96.8384 22.1826C97.0263 21.8708 97.1203 21.4966 97.1203 21.0601C97.1203 20.6236 97.0263 20.2494 96.8384 19.9376C96.6401 19.6154 96.3687 19.3708 96.0242 19.2045C95.6797 19.0382 95.2621 18.955 94.7715 18.955H92.438V24.7866H93.6907V23.1492M93.6907 20.0464H94.7089C95.0951 20.0464 95.3825 20.1351 95.5704 20.3118C95.7583 20.4885 95.8523 20.7379 95.8523 21.0601C95.8523 21.3823 95.7583 21.6318 95.5704 21.8085C95.3825 21.9955 95.0951 22.0891 94.7089 22.0891H93.6907V20.0464Z" fill="#3D668E"/>
<path d="M80.02 22.5097L77.3267 18.9544H76.2932V24.7859H77.5306V21.2465L80.2239 24.7859H81.2421V18.9544H80.0047L80.02 22.5097Z" fill="#3D668E"/>
<path d="M83.6374 24.8012H84.8748L84.8588 20.0616H86.5972L86.5812 18.9703H81.8989V20.0616H83.6221L83.6374 24.8012Z" fill="#3D668E"/>
<path d="M75.0091 18.9544H73.7717V24.7859H75.0091V18.9544Z" fill="#3D668E"/>
<path d="M106.627 20.2951L106.376 19.6403H106.878L106.627 20.2951Z" fill="#3D668E"/>
<path d="M105.083 22.525H108.091L108.564 23.5539H104.591L105.083 22.525Z" fill="#3D668E"/>
<path d="M130.66 22.525H133.667L134.14 23.5539H130.168L130.66 22.525Z" fill="#3D668E"/>
<path d="M109.666 24.7859H108.366L107.88 23.5387H108.272L107.927 22.5249H107.489L106.627 20.2952L105.782 22.5249H105.155L104.827 23.5387H105.374L104.905 24.7859H103.621L106.032 18.9703H107.253L109.666 24.7859Z" fill="#3D668E"/>
<path d="M78.6733 32.2936C78.6733 33.0523 78.5271 33.6032 78.2348 33.9462C77.9425 34.2788 77.5354 34.4451 77.0135 34.4451C76.4915 34.4451 76.0844 34.2788 75.7921 33.9462C75.4998 33.6032 75.3536 33.0523 75.3536 32.2936V27.8652H73.6465V32.3559C73.6465 33.5408 73.9443 34.4506 74.5394 35.0846C75.1344 35.7186 75.9542 36.036 76.9982 36.036C78.0525 36.036 78.8772 35.7186 79.4722 35.0846C80.0673 34.4506 80.3651 33.5408 80.3651 32.3559V27.8652H78.674V32.2936H78.6733Z" fill="#3D668E"/>
<path d="M87.1904 32.7585L83.4811 27.8652H82.0718V35.8953H83.7629V31.0193L87.4591 35.8953H88.8837V27.8652H87.1772L87.1904 32.7585Z" fill="#3D668E"/>
<path d="M92.3606 27.8652H90.6382V35.8953H92.3606V27.8652Z" fill="#3D668E"/>
<path d="M97.2183 33.5928L94.9599 27.8652H93.0962L96.3066 35.8953H97.9984L101.209 27.8652H99.5017L97.2183 33.5928Z" fill="#3D668E"/>
<path d="M106.988 32.5271V31.0928L103.213 31.1087L102.884 32.5431H103.516L106.988 32.5271Z" fill="#3D668E"/>
<path d="M103.527 32.543H103.515H103.511H103.417L103.401 31.1087H103.527L103.542 29.3619H107.426L107.442 27.8652H101.835V35.8953H107.567L107.583 34.3986H103.511L103.527 32.543Z" fill="#3D668E"/>
<path d="M113.862 33.3226C113.873 33.3226 113.877 33.3178 113.877 33.3067C114.358 33.0773 114.734 32.7503 115.005 32.3241C115.267 31.8876 115.397 31.3727 115.397 30.7803C115.397 30.1879 115.267 29.6578 115.005 29.2213C114.734 28.7847 114.358 28.4466 113.877 28.2075C113.397 27.9782 112.828 27.8645 112.17 27.8645H108.945V35.8947H110.667V33.6497H112.249L113.674 35.8947H115.522L113.862 33.3219V33.3226ZM113.251 31.81C112.989 32.0594 112.598 32.1841 112.076 32.1841H110.667L110.682 29.3779H112.076C112.598 29.3779 112.989 29.5026 113.251 29.752C113.513 29.9904 113.643 30.3334 113.643 30.781C113.643 31.2286 113.513 31.5605 113.251 31.81Z" fill="#3D668E"/>
<path d="M124.715 27.8652H122.992V35.8953H124.715V27.8652Z" fill="#3D668E"/>
<path d="M121.254 31.8258C120.993 31.6595 120.711 31.5293 120.408 31.4357C120.095 31.3318 119.787 31.2431 119.484 31.1704C119.171 31.0872 118.889 31.0089 118.639 30.9361C118.388 30.8634 118.184 30.7643 118.027 30.6396C117.871 30.5045 117.792 30.3382 117.792 30.1407C117.792 29.964 117.84 29.8081 117.933 29.673C118.016 29.5379 118.167 29.4284 118.387 29.3452C118.596 29.2621 118.868 29.2205 119.202 29.2205C119.536 29.2205 119.875 29.2725 120.22 29.3764C120.564 29.4803 120.909 29.6362 121.253 29.8441L121.786 28.441C121.441 28.2019 121.044 28.0197 120.596 27.895C120.136 27.7806 119.677 27.7231 119.218 27.7231C118.518 27.7231 117.934 27.8374 117.464 28.0661C117.004 28.2844 116.66 28.5858 116.43 28.9704C116.201 29.3445 116.086 29.7603 116.086 30.2176C116.086 30.6541 116.164 31.0075 116.321 31.2778C116.478 31.5584 116.686 31.7822 116.947 31.9485C117.198 32.1148 117.475 32.2499 117.778 32.3538C118.091 32.4682 118.399 32.5617 118.702 32.6345C119.015 32.7072 119.297 32.78 119.547 32.8527C119.808 32.9359 120.017 33.0398 120.174 33.1646C120.32 33.2893 120.393 33.4611 120.393 33.6794C120.393 33.8457 120.346 33.9967 120.252 34.1319C120.158 34.2566 120.007 34.3557 119.798 34.4284C119.589 34.5012 119.312 34.5379 118.968 34.5379C118.519 34.5379 118.08 34.4596 117.652 34.3037C117.214 34.1478 116.838 33.9448 116.525 33.6953L115.93 35.0985C116.264 35.3791 116.702 35.6029 117.245 35.7692C117.788 35.9459 118.357 36.0346 118.952 36.0346C119.662 36.0346 120.247 35.9203 120.706 35.6916C121.176 35.4629 121.526 35.1615 121.756 34.7874C121.996 34.4132 122.116 33.9974 122.116 33.5401C122.116 33.1244 122.033 32.7758 121.866 32.4952C121.709 32.225 121.505 32.0012 121.255 31.8245L121.254 31.8258Z" fill="#3D668E"/>
<path d="M132.107 27.8652H125.639V29.3778H128.019L128.035 35.8953H129.742L129.726 29.3778H132.123L132.107 27.8652Z" fill="#3D668E"/>
<path d="M136.328 31.4281L134.346 27.8652H132.53L135.396 33.0371V35.8953H137.118V33.0405L140 27.8652H138.308L136.328 31.4281Z" fill="#3D668E"/>
<path d="M69.2714 39.6397V0H67.4485V39.6397H69.2714Z" fill="#3D668E"/>
</svg>
